<?xml version="1.0" encoding="utf-8"?>
<!-- Generator: Adobe Illustrator 18.1.1, SVG Export Plug-In . SVG Version: 6.00 Build 0)  -->
<svg version="1.1" id="Ebene_1" xmlns="http://www.w3.org/2000/svg" xmlns:xlink="http://www.w3.org/1999/xlink" x="0px" y="0px"
	 viewBox="0 0 240.9 155.9" enable-background="new 0 0 240.9 155.9" xml:space="preserve">
<polyline fill="none" stroke="#BE1622" stroke-width="2" stroke-miterlimit="10" points="83,98.4 83,67.4 87.3,63.1 101.2,63.1 
	105.3,67.4 113.1,67.4 "/>
<polyline fill="none" stroke="#BE1622" stroke-width="2" stroke-miterlimit="10" points="79.4,53.5 79.4,40.6 84.9,35.1 100.5,35.1 
	103.4,32.2 114.7,32.2 "/>
<polyline fill="none" stroke="#BE1622" stroke-width="2" stroke-miterlimit="10" points="75.8,64.1 83.1,56.8 83.1,42.1 86.8,38.5 
	120.2,38.5 "/>
<polyline fill="none" stroke="#BE1622" stroke-width="2" stroke-miterlimit="10" points="79.4,99.1 79.4,65.6 85.7,59.4 101.2,59.4 
	104,56.8 "/>
<circle fill="none" stroke="#BE1622" stroke-width="1.4" stroke-miterlimit="10" cx="121" cy="38.3" r="1.1"/>
<circle fill="#FFFFFF" stroke="#BE1622" stroke-width="1.4" stroke-miterlimit="10" cx="104.8" cy="55.7" r="1.1"/>
<circle fill="#FFFFFF" stroke="#BE1622" stroke-width="1.4" stroke-miterlimit="10" cx="79.4" cy="54.4" r="1.1"/>
<circle fill="none" stroke="#BE1622" stroke-width="1.4" stroke-miterlimit="10" cx="115.8" cy="32.2" r="1.1"/>
<circle fill="none" stroke="#BE1622" stroke-width="1.4" stroke-miterlimit="10" cx="113.8" cy="67.4" r="1.1"/>
<line fill="none" stroke="#BE1622" stroke-width="1.9" stroke-miterlimit="10" x1="75.8" y1="77.1" x2="75.8" y2="47.8"/>
<circle fill="none" stroke="#BE1622" stroke-width="1.4" stroke-miterlimit="10" cx="75.8" cy="46.7" r="1.1"/>
<circle fill="none" stroke="#BE1622" stroke-width="1.4" stroke-miterlimit="10" cx="79.4" cy="100.2" r="1.1"/>
<circle fill="none" stroke="#BE1622" stroke-width="1.4" stroke-miterlimit="10" cx="75.8" cy="78.2" r="1.1"/>
<polyline fill="none" stroke="#BE1622" stroke-width="2" stroke-miterlimit="10" points="128.6,98.5 128.6,70.5 133.8,65.1 
	143.7,65.1 "/>
<polyline fill="none" stroke="#BE1622" stroke-width="2" stroke-miterlimit="10" points="124.8,56.5 124.8,43.6 135.1,34.8 
	148.8,34.8 151.5,32.8 "/>
<circle fill="#FFFFFF" stroke="#BE1622" stroke-width="1.4" stroke-miterlimit="10" cx="144.4" cy="65.1" r="1.1"/>
<circle fill="#FFFFFF" stroke="#BE1622" stroke-width="1.4" stroke-miterlimit="10" cx="124.9" cy="56.4" r="1.1"/>
<circle fill="none" stroke="#BE1622" stroke-width="1.4" stroke-miterlimit="10" cx="152" cy="32.2" r="1.1"/>
<path fill="none" stroke="#BE1622" stroke-width="2" stroke-miterlimit="10" d="M124.9,52.7"/>
<path fill="none" stroke="#BE1622" stroke-width="2" stroke-miterlimit="10" d="M124.9,63.1"/>
<path fill="none" stroke="#BE1622" stroke-width="1.4" stroke-miterlimit="10" d="M124.9,52.3"/>
<circle fill="none" stroke="#BE1622" stroke-width="1.4" stroke-miterlimit="10" cx="124.9" cy="100.2" r="1.1"/>
<polyline fill="none" stroke="#BE1622" stroke-width="2" stroke-miterlimit="10" points="170.5,99.1 149.8,78.5 149.8,70.4 
	161.2,59 161.2,45.1 154.8,38.5 136.8,38.5 129,45.1 129,58.8 124.9,62.9 124.9,99.2 "/>
<circle fill="none" stroke="#BE1622" stroke-width="1.4" stroke-miterlimit="10" cx="171.4" cy="100.2" r="1.1"/>
<circle fill="none" stroke="#BE1622" stroke-width="1.4" stroke-miterlimit="10" cx="150.1" cy="65.1" r="1.1"/>
<polyline fill="none" stroke="#BE1622" stroke-width="2" stroke-miterlimit="10" points="124.9,68.7 132,61.5 146.8,61.5 
	149.3,64.2 "/>
<polyline fill="none" stroke="#BE1622" stroke-width="2" stroke-miterlimit="10" points="173.2,96.5 153.8,77.4 153.8,71.4 
	165.1,60.2 165.1,47.4 "/>
<circle fill="#FFFFFF" stroke="#BE1622" stroke-width="1.4" stroke-miterlimit="10" cx="165.1" cy="46.6" r="1.1"/>
</svg>
